<?xml version="1.0" encoding="UTF-8"?>
<!DOCTYPE svg PUBLIC "-//W3C//DTD SVG 1.1//EN" "http://www.w3.org/Graphics/SVG/1.1/DTD/svg11.dtd">
<!-- Creator: CorelDRAW X7 -->
<svg xmlns="http://www.w3.org/2000/svg" xml:space="preserve" width="6.283in" height="7.0752in" version="1.1" style="shape-rendering:geometricPrecision; text-rendering:geometricPrecision; image-rendering:optimizeQuality; fill-rule:evenodd; clip-rule:evenodd"
viewBox="0 0 7260 8176"
 xmlns:xlink="http://www.w3.org/1999/xlink">
 <defs>
  <style type="text/css">
   <![CDATA[
    .str0 {stroke:white;stroke-width:12.038;stroke-opacity:0.501961}
    .fil3 {fill:none}
    .fil14 {fill:#D2D3D5}
    .fil9 {fill:#444053}
    .fil16 {fill:#585268}
    .fil12 {fill:#61038D}
    .fil10 {fill:#67647E}
    .fil13 {fill:#D8D9E5}
    .fil8 {fill:#E1E7EF}
    .fil11 {fill:#E4E6ED}
    .fil5 {fill:#EFB7B9}
    .fil15 {fill:#EFB7B9}
    .fil0 {fill:#FAFAFA}
    .fil6 {fill:black;fill-opacity:0.031373}
    .fil7 {fill:black;fill-opacity:0.101961}
    .fil1 {fill:#61038D;fill-opacity:0.101961}
    .fil2 {fill:#61038D;fill-opacity:0.501961}
    .fil4 {fill:url(#id0)}
   ]]>
  </style>
  <linearGradient id="id0" gradientUnits="userSpaceOnUse" x1="5289.15" y1="7473.55" x2="5289.15" y2="5182.16">
   <stop offset="0" style="stop-opacity:0.25098; stop-color:gray"/>
   <stop offset="0.541176" style="stop-opacity:0.121569; stop-color:gray"/>
   <stop offset="1" style="stop-opacity:0.101961; stop-color:gray"/>
  </linearGradient>
 </defs>
 <g id="Layer_x0020_1">
  <metadata id="CorelCorpID_0Corel-Layer"/>
  <g id="_1484653723072">
   <rect class="fil0" width="7260" height="8176"/>
   <g>
    <g>
     <path class="fil1" d="M5666 5081c-28,23 -41,60 -52,95 -25,79 -48,158 -69,237 -32,116 -60,234 -118,339 -58,105 -142,192 -225,278l-299 310c-92,96 -190,207 -189,340 2,115 83,218 181,277 99,60 214,84 327,108 58,12 119,23 174,4 66,-24 109,-88 169,-124 109,-64 246,-28 367,6 122,34 265,59 363,-19 143,-114 81,-344 145,-515 61,-163 228,-257 338,-391 245,-299 138,-716 -201,-884 -111,-55 -220,-52 -341,-61 -150,-10 -440,-106 -570,0z"/>
    </g>
    <g>
     <path class="fil2" d="M4741 6815c0,0 -502,-254 -287,-822 214,-567 -562,-764 -562,-764 0,0 -152,552 133,920 286,368 397,979 716,666z"/>
     <path class="fil3 str0" d="M3892 5229c0,0 211,367 318,844 107,478 281,872 529,733"/>
    </g>
    <g>
     <path class="fil2" d="M4634 6908c0,0 -201,-289 65,-566 266,-278 -97,-608 -97,-608 0,0 -229,286 -174,583 55,296 -49,689 206,591z"/>
     <path class="fil3 str0" d="M4602 5734c0,0 16,276 -55,588 -70,313 -82,594 88,580"/>
    </g>
    <g>
     <path class="fil1" d="M4042 7362c3,21 16,38 28,53l142 180c11,14 23,29 38,33 32,9 58,-32 86,-56 97,-86 230,44 340,-5 44,-20 79,-68 124,-84 119,-42 219,146 342,155 40,3 80,-13 118,-30l256 -109c18,-8 36,-16 55,-16 32,-1 61,20 91,34 119,59 252,27 375,-17 122,-45 246,-102 373,-93 33,3 77,1 86,-43 5,-25 -67,2 -84,-12 -17,-14 23,-72 3,-75 -114,-14 -230,-14 -341,22 -58,18 -115,47 -174,52 -62,6 -124,-12 -184,-29 -154,-43 -310,-76 -467,-70 -279,13 -554,150 -831,110 -82,-12 -162,-39 -235,-79 -38,-20 -36,52 -74,76 -13,8 -45,-65 -55,-51 -9,12 -13,26 -13,41 0,5 0,9 1,13l0 0z"/>
    </g>
    <path class="fil4" d="M6433 7015l-443 -580c-35,-163 -87,-163 -87,-163 -353,-48 -450,-109 -450,-109l-79 -31 -6 -4c-1,-1 -1,-3 -1,-5 -1,-2 -1,-4 -1,-6 86,-52 148,-136 173,-233 1,-3 1,-6 2,-8 17,-8 31,-21 41,-37 34,-56 2,-126 3,-191 0,-41 14,-81 13,-122 -2,-34 -14,-67 -27,-99 -7,-15 -14,-31 -27,-42 -33,-30 -86,-18 -128,-32 -55,-19 -81,-79 -113,-127 -12,-18 -34,-38 -54,-28 -23,12 -17,53 -41,64 -14,7 -32,-2 -42,-14 -10,-12 -16,-27 -26,-39 -15,-17 -36,-27 -58,-27 -6,0 -11,1 -17,2 -5,1 -10,3 -14,7 -7,9 -3,22 -2,34 2,38 -46,60 -85,64 -39,4 -85,4 -109,36 -12,16 -15,38 -23,56 -19,44 -66,68 -108,93 -41,25 -83,61 -83,109 1,45 41,82 48,127 4,24 -2,49 2,73 9,43 50,73 87,98 3,1 6,3 8,4 1,3 2,6 2,8 30,103 100,189 196,237 1,3 1,6 2,8 1,8 3,17 5,26l-2 0 0 -1 -437 112c-2,-1 -5,-1 -7,-1 0,0 -1,0 -2,0 -17,-2 -74,17 -139,280l-280 495c0,0 -163,156 -38,289 63,67 135,84 190,84 1,0 2,0 3,0 31,0 62,-6 90,-16 29,-11 -2,-4 -5,-10l37 5c73,81 197,52 197,52 0,0 177,-2 183,-94l318 97 1 18 167 0 0 -12 350 -105c28,50 95,75 95,75 0,0 206,9 270,-28 27,-16 57,-28 88,-34l2 0 -1 0 397 -43c180,-156 -35,-312 -35,-312zm-1995 138l-9 -5c15,-6 32,-10 48,-14l77 -95 13 94c-13,-3 -26,-5 -39,-5 -32,0 -63,9 -90,25l0 0zm1491 0c-28,-22 -62,-33 -97,-33 -1,0 -2,0 -2,0l3 -231c29,18 53,39 60,58 21,58 121,150 121,150l-52 43 0 0 -8 6c-2,1 -4,1 -7,2l-18 5z"/>
    <polygon class="fil5" points="4357,7408 4437,7418 4485,7185 4394,7131 4276,7259 "/>
    <polygon class="fil6" points="4357,7408 4437,7418 4485,7185 4394,7131 4276,7259 "/>
    <path class="fil5" d="M5442 6265l-195 175c0,0 -378,84 -284,-34 54,-66 47,-168 31,-243 -8,-34 -18,-68 -31,-101 -12,-32 486,-293 419,-70 -20,66 -23,117 -17,155 14,93 77,118 77,118z"/>
    <path class="fil7" d="M5382 5992c-20,66 -23,117 -17,155 -7,-34 -18,-67 -30,-100 -13,-32 114,-278 47,-55z"/>
    <polygon class="fil8" points="4906,6309 4906,7000 5570,6946 5459,6241 5166,6416 "/>
    <path class="fil7" d="M5267 6733l-74 -209 3 0c78,-84 44,-134 44,-134l-108 0c-68,48 -21,111 -5,129l-32 214 172 0z"/>
    <path class="fil9" d="M5267 6727l-74 -209 3 0c78,-85 44,-135 44,-135l-108 0c-68,48 -21,111 -5,130l-32 214 172 0z"/>
    <path class="fil7" d="M5366 6159c0,0 -22,99 -170,230 0,0 46,16 52,137l56 76c0,0 44,-158 121,-212 78,-54 0,-196 0,-196l-59 -35z"/>
    <path class="fil8" d="M5366 6153c0,0 -22,98 -170,230 0,0 46,15 52,136l56 76c0,0 44,-158 121,-212 78,-54 0,-196 0,-196l-59 -34z"/>
    <path class="fil7" d="M5166 6389c0,0 -64,51 -68,132 -3,81 -37,81 -37,81 0,0 -84,-260 -111,-283 -27,-24 49,-123 49,-123 0,0 42,140 167,193z"/>
    <path class="fil8" d="M5166 6383c0,0 -64,50 -68,131 -3,81 -37,81 -37,81 0,0 -84,-259 -111,-283 -27,-24 48,-123 48,-123 0,0 43,140 168,194z"/>
    <path class="fil7" d="M5361 6153l85 34c0,0 94,61 438,108 0,0 51,0 84,162l432 577c0,0 209,155 34,310l-386 42c0,0 222,-212 -115,-219l62 -53c0,0 -98,-91 -118,-148 -20,-57 -185,-121 -185,-121l20 485 -303 47 -44 -903c-1,-10 -1,-20 -1,-30 0,-32 3,-65 8,-97 11,-69 24,-178 -11,-194z"/>
    <path class="fil10" d="M5365 6153l84 34c0,0 94,61 438,108 0,0 51,0 85,162l431 577c0,0 209,155 34,310l-386 42c0,0 222,-212 -115,-219l63 -52c0,0 -98,-92 -118,-149 -21,-57 -186,-121 -186,-121l21 485 -304 47 -44 -903c0,-10 -1,-20 -1,-30 0,-32 3,-65 8,-97 12,-69 24,-178 -10,-194z"/>
    <path class="fil7" d="M5001 6187l-429 112c0,0 -64,-41 -141,276l-273 492c0,0 -159,155 -37,287 121,132 273,67 273,67 0,0 -139,-215 104,-269l91 -115 412 47 -11 -593 12 -70c6,-37 9,-75 9,-112 0,-38 -3,-76 -9,-113l-1 -9z"/>
    <path class="fil10" d="M4997 6187l-428 112c0,0 -64,-41 -142,276l-273 492c0,0 -158,155 -37,287 122,131 273,67 273,67 0,0 -138,-215 105,-269l91 -115 411 47 -10 -593 11 -70c7,-37 10,-75 10,-112 0,-38 -3,-76 -10,-113l-1 -9z"/>
    <polygon class="fil11" points="4576,6518 4535,6548 5146,6703 5146,6642 "/>
    <polygon class="fil11" points="5756,6508 5796,6538 5146,6703 5146,6642 "/>
    <polygon class="fil12" points="4498,6518 5065,6649 5105,7472 4609,7317 "/>
    <polygon class="fil12" points="5823,6518 5220,6656 5253,7482 5813,7310 "/>
    <path class="fil12" d="M5044 6649c0,0 99,61 203,0l20 840 -162 0 -61 -840z"/>
    <path class="fil7" d="M5044 6649c0,0 99,61 203,0l20 840 -162 0 -61 -840z"/>
    <path class="fil13" d="M4589 6508l0 23 557 111c0,0 -284,-104 -557,-134z"/>
    <path class="fil13" d="M5746 6494l0 24 -600 124c0,0 327,-118 600,-148z"/>
    <path class="fil5" d="M5930 7165l-17 5c0,0 -115,-100 -261,52 -146,152 48,226 48,226 0,0 201,9 264,-29 19,-3 36,-13 49,-27l0 0c20,-22 31,-50 31,-80 0,-5 -1,-11 -1,-17l0 0c13,-20 20,-43 20,-66 0,-23 -7,-45 -19,-64l0 0c-18,-5 -37,-7 -56,-7 -19,0 -39,2 -58,7l0 0z"/>
    <path class="fil5" d="M4444 7182c0,0 135,-121 300,81 166,202 -128,206 -128,206 0,0 -158,37 -219,-95 -61,-131 47,-192 47,-192z"/>
    <path class="fil7" d="M5944 7157c0,0 157,46 124,227l94 -11 20 -92 -40 -128 -78 -30 -120 34z"/>
    <path class="fil10" d="M5948 7157c0,0 157,46 123,227l95 -11 20 -92 -41 -128 -77 -30 -120 34z"/>
    <path class="fil7" d="M5543 5820c-17,8 -36,12 -56,12 -7,0 -13,0 -20,-1 -44,-7 -84,-34 -117,-65 -32,-31 -60,-67 -91,-100 -29,-29 -64,-57 -105,-58 -37,-1 -71,20 -107,30 -37,10 -113,-18 -131,14 -11,18 -7,60 -14,82 -7,24 -16,47 -29,69 -9,16 -22,33 -41,33 -8,-32 -13,-66 -13,-100 0,-208 169,-377 378,-377 208,0 377,169 377,377 0,0 0,0 0,0l-31 84z"/>
    <ellipse class="fil14" cx="5133" cy="5776" rx="316" ry="329"/>
    <circle class="fil15" cx="5126" cy="5770" r="327"/>
    <path class="fil16" d="M5003 5678c35,-10 69,-31 107,-29 40,1 76,28 104,58 32,32 59,68 92,100 33,31 72,57 117,64 44,7 95,-10 118,-48 33,-56 2,-126 2,-190 1,-41 14,-81 13,-121 -1,-34 -13,-67 -26,-98 -7,-16 -14,-31 -26,-43 -32,-29 -84,-17 -125,-31 -54,-19 -79,-78 -110,-126 -12,-18 -33,-38 -53,-28 -22,12 -16,52 -39,64 -14,7 -31,-2 -41,-14 -10,-12 -16,-27 -26,-39 -5,1 -10,3 -14,7 -7,9 -2,22 -2,33 2,39 -44,60 -82,64 -39,4 -83,5 -106,36 -12,16 -15,37 -23,56 -19,43 -64,67 -105,92 -40,25 -81,61 -81,108 1,46 40,82 47,127 3,24 -2,48 2,72 9,43 48,72 85,97 9,6 19,12 30,12 18,1 32,-16 41,-32 12,-22 22,-46 29,-70 6,-22 2,-63 13,-82 -55,-57 21,-29 59,-39z"/>
   </g>
  </g>
 </g>
</svg>
